<svg xmlns="http://www.w3.org/2000/svg" xmlns:xlink="http://www.w3.org/1999/xlink" viewBox="0 0 319.51 73.74"><defs><style>.cls-1{fill:none;}.cls-2{fill:#28a9e1;}.cls-3{fill:#fbaf42;}.cls-4{clip-path:url(#clip-path);}.cls-5{fill:#262262;}</style><clipPath id="clip-path"><rect class="cls-1" width="319.51" height="73.74"/></clipPath></defs><g id="Layer_2" data-name="Layer 2"><g id="Layer_1-2" data-name="Layer 1"><rect class="cls-2" width="46.09" height="18.43"/><rect class="cls-2" x="27.65" y="55.3" width="46.09" height="18.43"/><rect class="cls-3" y="18.43" width="18.43" height="55.3"/><rect class="cls-3" x="55.3" width="18.43" height="55.3"/><g class="cls-4"><path class="cls-5" d="M313.55,33.71a10.18,10.18,0,0,1,2.93,7.42,10.47,10.47,0,0,1-1.31,5.23,9.56,9.56,0,0,1-3.72,3.69,10.25,10.25,0,0,1-5.12,1.36,9.78,9.78,0,0,1-5-1.37,10.1,10.1,0,0,1-3.72-3.84,10.39,10.39,0,0,1,0-10.33,9.93,9.93,0,0,1,8.77-5.14,9.66,9.66,0,0,1,7.19,3m2.71-15.37V32.92a12.84,12.84,0,0,0-4.47-4,12,12,0,0,0-5.7-1.34,12.61,12.61,0,0,0-9.33,3.92,13,13,0,0,0-3.88,9.45,13.22,13.22,0,0,0,3.84,9.58,13,13,0,0,0,14.9,2.67,14.09,14.09,0,0,0,4.64-3.79v4.4h3.25V18.34ZM284,53.79h3.29V28.21H284Zm-.26-35.31a2.65,2.65,0,0,0-.79,1.93,2.58,2.58,0,0,0,.79,1.9,2.55,2.55,0,0,0,1.9.8,2.71,2.71,0,0,0,2.71-2.7,2.65,2.65,0,0,0-.79-1.93,2.62,2.62,0,0,0-1.92-.8,2.59,2.59,0,0,0-1.9.8M268.88,53.79h3.36V45.14c0-4.44.21-7.38.62-8.84a8.55,8.55,0,0,1,2.32-4.2,4.77,4.77,0,0,1,3.18-1.35,4.55,4.55,0,0,1,1.74.45l1.71-2.77a6,6,0,0,0-2.91-.87,6.23,6.23,0,0,0-3.48,1.09,12,12,0,0,0-3.18,3.3V28.21h-3.36ZM254.61,19.93a21.65,21.65,0,0,0-8.28-1.59,19.73,19.73,0,0,0-9.73,2.39,17.62,17.62,0,0,0-6.77,6.61,17.92,17.92,0,0,0-2.46,9.15,17.34,17.34,0,0,0,4.3,11.63q5.6,6.54,15.18,6.54,7.91,0,12.61-4.72t4.76-12.72h-14.9v3.33h11A11.87,11.87,0,0,1,256,48.36a13.85,13.85,0,0,1-9,3,16.62,16.62,0,0,1-8.09-2,14.79,14.79,0,0,1-5.78-5.53A14.2,14.2,0,0,1,231,36.42a14,14,0,0,1,2-7.23,14.39,14.39,0,0,1,5.7-5.42,16,16,0,0,1,7.74-2,17,17,0,0,1,6.71,1.47,20.43,20.43,0,0,1,6.34,4.32L262.18,25a24.71,24.71,0,0,0-7.57-5.09M207,51.88,201.7,63.14h6.62l16-34.93h-6.58l-7.33,16-6.64-16h-6.56ZM183.3,53.79h6.37V43.44l0-1.24q0-5.36,1-7.19a2.94,2.94,0,0,1,2.51-1.84,4.37,4.37,0,0,1,1.85.57l2-5.53a6.12,6.12,0,0,0-2.61-.65,5.77,5.77,0,0,0-3.24,1,7,7,0,0,0-2.38,2.89V28.21h-5.5Zm-23.88-16a8.36,8.36,0,0,1,2.35-3.31,7.7,7.7,0,0,1,4.71-1.5,7.21,7.21,0,0,1,4.34,1.34,6.4,6.4,0,0,1,2.51,3.47Zm20.35,3.83A14,14,0,0,0,176,31.42a13.18,13.18,0,0,0-9.83-3.86,12.7,12.7,0,0,0-9.46,3.86,13.38,13.38,0,0,0-3.77,9.72,12.93,12.93,0,0,0,3.78,9.51,13.25,13.25,0,0,0,9.8,3.79,15.09,15.09,0,0,0,6.7-1.37,12.74,12.74,0,0,0,4.84-4.24l-5.4-2.54a8.56,8.56,0,0,1-6.18,2.51,7.44,7.44,0,0,1-4.95-1.61,6.89,6.89,0,0,1-2.39-4.33h20.62Zm-54.42-2.77q0,6.14.75,8.46a10,10,0,0,0,3.66,5.24,11.29,11.29,0,0,0,6.8,1.88A11.56,11.56,0,0,0,143,52.83a10,10,0,0,0,3.81-4.61c.71-1.65,1.06-4.7,1.06-9.17V28.21H141.4V40.74a17.19,17.19,0,0,1-.4,4.73,4.47,4.47,0,0,1-1.66,2.24,4.68,4.68,0,0,1-2.72.76,4.53,4.53,0,0,1-2.7-.77,4.36,4.36,0,0,1-1.59-2.18,17,17,0,0,1-.49-5V28.21h-6.49Zm-17.12.54h-7.86l6.2,8a10.88,10.88,0,0,1-4.43.92,11.32,11.32,0,0,1-7.32-2.61,11.05,11.05,0,0,1-4.12-9.07A11.63,11.63,0,0,1,94,28.12a10.92,10.92,0,0,1,8.12-3.34,10.78,10.78,0,0,1,8,3.43,11.58,11.58,0,0,1,3.32,8.35,12,12,0,0,1-2.1,6.86ZM120,36.61a17.66,17.66,0,0,0-5.28-12.95,17.18,17.18,0,0,0-12.64-5.32,17.59,17.59,0,0,0-9,2.45,17.94,17.94,0,0,0-9,15.7,17.87,17.87,0,0,0,5.15,12.8,18.26,18.26,0,0,0,21.4,3.29l3,3.93h7.79l-6-7.78A17.58,17.58,0,0,0,120,36.61"/></g></g></g></svg>