<svg width="32" height="32" viewBox="0 0 32 32" fill="none" xmlns="http://www.w3.org/2000/svg">
<path d="M27.3337 14.6667H25.3337V9.33333C25.3337 7.86666 24.1337 6.66666 22.667 6.66666H17.3337V4.66666C17.3337 2.82666 15.8403 1.33333 14.0003 1.33333C12.1603 1.33333 10.667 2.82666 10.667 4.66666V6.66666H5.33366C3.86699 6.66666 2.68033 7.86666 2.68033 9.33333V14.4H4.66699C6.65366 14.4 8.26699 16.0133 8.26699 18C8.26699 19.9867 6.65366 21.6 4.66699 21.6H2.66699V26.6667C2.66699 28.1333 3.86699 29.3333 5.33366 29.3333H10.4003V27.3333C10.4003 25.3467 12.0137 23.7333 14.0003 23.7333C15.987 23.7333 17.6003 25.3467 17.6003 27.3333V29.3333H22.667C24.1337 29.3333 25.3337 28.1333 25.3337 26.6667V21.3333H27.3337C29.1737 21.3333 30.667 19.84 30.667 18C30.667 16.16 29.1737 14.6667 27.3337 14.6667Z" fill="#5141A4"/>
</svg>
